<?xml version="1.0" encoding="UTF-8"?>
<svg width="77px" height="23px" viewBox="0 0 77 23" version="1.1" xmlns="http://www.w3.org/2000/svg" xmlns:xlink="http://www.w3.org/1999/xlink">
    <!-- Generator: Sketch 51.3 (57544) - http://www.bohemiancoding.com/sketch -->
    <title>logo-full</title>
    <desc>Created with Sketch.</desc>
    <defs></defs>
    <g id="Page-1" stroke="none" stroke-width="1" fill="none" fill-rule="evenodd">
        <g id="logo-full" fill="#FFFFFF">
            <path d="M57.0462795,10.5997738 C55.5697973,10.3586727 55.6995614,7.77073906 57.0462795,7.59815234 L62.5046884,7.59815234 C61.5414398,8.22865762 60.8027828,9.19653092 60.3594223,10.6153846 L57.0462795,10.5997738 Z M61.359271,2.92443439 C61.359271,2.60180995 61.5805354,2.33902715 61.8525408,2.33902715 L75.1125983,2.33902715 C75.3846038,2.33902715 75.6058681,2.60180995 75.6058681,2.92443439 L75.6058681,4.85844646 C75.6058681,5.18107089 75.3846038,5.44558824 75.1125983,5.44558824 L61.8525408,5.44558824 C61.5805354,5.44558824 61.359271,5.18107089 61.359271,4.85844646 L61.359271,2.92443439 Z M65.1540381,10.6223228 C63.3315185,11.175641 62.2152148,16.4338989 65.4460073,17.8753017 L72.6462492,17.8943816 C73.7384301,17.7261312 73.6851936,15.5206637 72.6545675,15.5995852 L68.3116304,15.6013198 C66.7178615,15.5518854 66.6662886,12.7861614 68.2883394,12.6578054 L72.2661071,12.6586727 L72.8666818,12.6699472 C76.6872353,12.8026395 76.5657895,20.5421569 73.2285239,20.9124811 L72.563899,20.9124811 L65.1290835,20.918552 C64.7797187,20.8942685 64.0552027,20.5898567 63.6434513,20.256825 C59.3587417,16.7972851 60.5124773,10.5477376 63.6035239,8.33273002 C63.9137931,8.10984163 64.4004083,7.63891403 65.2330611,7.6050905 L77,7.6050905 L77,4.09177979 C77,1.84121418 75.2390351,0 73.0862825,0 L58.9137175,0 C56.7609649,0 55,1.84121418 55,4.09177979 L55,18.9082202 C55,21.1587858 56.7609649,23 58.9137175,23 L73.0862825,23 C75.2390351,23 77,21.1587858 77,18.9082202 L77,10.6223228 L65.1540381,10.6223228 Z" id="Fill-1"></path>
            <path d="M0.0101195855,4.90387487 C-0.0108865733,6.05635463 0.00759884642,7.24601116 0.00591835372,8.3993555 C1.75615151,9.22848385 3.64250457,10.2236108 5.59859808,11.597422 C5.59607734,10.345516 5.59775783,9.33309754 5.60363956,8.08032697 C3.65426802,6.75925489 1.7813589,5.690639 0.0101195855,4.90387487 Z M5.60111882,12.3158846 C5.59607734,14.2084414 5.61456276,15.6419084 5.61120177,17.2491551 C3.55847993,19.2982001 2.36112888,20.4325238 0.01600131,22 C0.0151610636,20.42993 -0.00164386346,19.1953156 0.00423786101,17.7428279 C2.14098434,16.2099348 3.51394688,14.8897273 5.60111882,12.3158846 Z M30.7791008,12.3158846 C30.7841423,13.98711 30.7841423,15.6946475 30.7824618,17.2552071 C30.1379928,17.9269826 29.4968848,18.546019 28.8557769,19.1218266 C27.6483429,20.2085986 26.4476308,21.1440698 25.2443981,21.9749273 C25.2410371,20.4351175 25.2368358,19.1296078 25.2368358,17.7289947 C25.6384736,17.4324452 26.059437,17.1333019 26.4560333,16.8090859 C27.9760389,15.5615028 29.4271444,14.0640572 30.7791008,12.3158846 Z M10.915677,3.32083628 L10.9131563,5.36555844 L17.082245,5.36815217 L16.3949235,7.30393775 L10.905594,7.30480233 L10.908955,9.32272263 C13.1658567,9.32272263 15.3294911,9.33482669 17.587233,9.33482669 C17.8493899,9.32963924 18.1728847,9.14202625 18.1745652,8.69331133 C18.1686835,6.98058634 18.1586006,5.60158768 18.1628018,3.88972727 C18.1619615,3.57934449 17.8745973,3.32170086 17.5527829,3.32343001 L10.915677,3.32083628 Z M12.5558379,1.33317614 L12.5583586,0.024208127 L16.5159189,0.0216143991 L16.5184397,1.33231156 C17.825863,1.33231156 18.8971771,1.34355105 20.2037602,1.34355105 C21.1187885,1.35824884 22.0976755,2.19256465 22.099356,3.34763814 C22.0800303,5.32838167 22.1312853,7.29183369 22.1195219,9.27257722 C22.1161609,10.5460976 21.0633322,11.301737 20.1936772,11.3026016 L10.9097953,11.3103828 L10.905594,12.2095418 C11.8743981,12.2095418 12.6037319,12.2104064 13.5733762,12.2104064 C14.3069113,13.1112945 15.124471,13.9732767 15.8470828,14.71076 C16.7671526,13.8081427 17.3612068,13.208127 18.1980921,12.2052189 L22.2354759,12.2052189 C21.0608115,13.9170793 19.5349241,15.518274 18.1233102,16.9145642 C19.9130349,18.5615814 21.8976968,20.2535566 23.8075768,21.9827085 C22.0497814,21.9827085 20.3407203,21.9636878 18.582925,21.9636878 C16.052103,19.4763028 13.4128892,16.6975556 10.8988721,13.6793209 C10.8938306,15.7024287 10.8761854,17.4410909 10.8988721,19.4356677 C10.8879489,19.8082999 11.2072425,20.0555687 11.6408096,20.0477875 L13.9909786,20.0451937 L13.2893729,21.9956771 C11.7794502,21.9956771 10.4342158,21.9974063 8.92429314,21.9974063 C8.10169196,21.9887605 6.95811668,21.294506 6.96063742,19.9518195 L6.94887397,1.33490529 L12.5558379,1.33317614 Z M25.2141492,0.00691660772 C25.2057467,1.15939637 25.2183504,2.3741256 25.2116284,3.52746994 C26.6753376,4.17849564 28.9759321,5.38544368 30.7959057,6.71516152 C30.7883435,5.46239095 30.8009472,4.45083707 30.793385,3.19720192 C29.1112118,1.95826456 26.6711364,0.68560874 25.2141492,0.00691660772 Z M25.2040662,4.90387487 C26.6694559,5.54020278 29.1406204,6.91833687 30.7891837,8.0647646 C30.8001069,9.31753517 30.7757398,10.3221724 30.786663,11.5740784 C29.0649982,10.3619429 26.8055758,9.13943252 25.1990247,8.39762635 C25.2023857,7.24514658 25.199865,6.05635463 25.2040662,4.90387487 Z M44.201196,8.7157903 L44.1927936,12.2000314 L46.3228181,12.1957086 L46.3278595,8.7157903 L44.201196,8.7157903 Z M41.5434968,3.30354476 L41.544337,1.33404071 C43.5273184,1.32625953 45.3657775,1.34700935 47.3495991,1.33922817 C47.7268697,1.3452802 48.123466,1.51646624 48.4175522,1.7879431 C48.7746569,2.11734654 48.9956417,2.60150908 48.9956417,3.21622259 C48.993121,5.91802248 48.9847185,8.57313527 48.9889197,11.2265189 C48.9939612,14.1401399 49.0090856,17.0520318 48.9922807,20.0192565 C48.9872392,20.5207105 48.7326446,21.0809557 48.3973863,21.4060363 C48.0411218,21.7518667 47.5520985,21.9913542 47.1084484,21.9896251 L44.9532165,21.9878959 L44.9607787,20.0495166 C45.299398,20.0477875 45.3582152,20.0564332 45.6976748,20.0547041 C46.0841881,20.0555687 46.326179,19.7503733 46.3303803,19.4313448 L46.332901,14.1263067 C45.6758284,14.1263067 44.8406235,14.1271713 44.1827106,14.1280358 C44.1591837,15.6237523 44.1070884,16.9820011 44.0524724,18.3739684 C44.0197028,19.2091488 43.9953357,20.0564332 43.9491221,20.9547277 C43.0248511,21.288454 42.1610779,21.6351489 41.2368069,21.9688753 C41.4292233,18.4958736 41.4813186,15.114517 41.5149284,11.7193272 C41.5384553,9.18266132 41.5678639,6.63821426 41.5468578,4.04362179 L44.2053972,4.0505384 L44.207918,6.79210878 L46.326179,6.79902539 L46.3244985,3.30095103 L41.5434968,3.30354476 Z M34.7837149,10.6896172 L34.7879161,12.6288611 L37.52964,12.6288611 L37.5313205,10.6878881 L34.7837149,10.6896172 Z M34.7845551,6.80161911 L34.7803539,8.75642537 L37.5237582,8.75123792 L37.5237582,6.79902539 L34.7845551,6.80161911 Z M32.1268559,1.33058241 L34.8366504,1.32712411 L34.8408516,0.0181560953 L37.4985509,0.023343551 L37.4951899,1.32712411 L40.2007831,1.32539495 L40.1890197,3.31132595 L37.5019118,3.32083628 L37.4951899,4.87793759 C37.8951471,4.87793759 38.1236941,4.87620844 38.5244917,4.87620844 C38.8681524,4.8813959 39.3588563,5.05258194 39.6495815,5.32924625 C39.9579519,5.62406665 40.2142271,6.12897901 40.2066649,6.65550578 L40.2007831,14.5551364 L37.4884679,14.5447615 L37.4943496,16.5151301 L40.1982624,16.5134009 L40.1991026,18.4526448 L37.5052728,18.4526448 L37.5044326,20.9746129 L34.8349699,21.977521 L34.8391712,18.4414053 L32.1335779,18.4388116 L32.1386194,16.5134009 L34.8458931,16.5168592 L34.8374907,14.5508135 L32.1369389,14.5585947 L32.1209742,4.85286489 L34.8341297,4.85632319 L34.8358102,3.31478425 L32.1276962,3.31737798 L32.1268559,1.33058241 Z M0.0134805709,0 C1.67548786,0.746993634 3.773583,1.92195237 5.6044798,3.2015248 C5.59439685,4.45343079 5.60784079,5.41829757 5.60195906,6.69873458 C3.63746309,5.33962116 1.78471988,4.3272027 0.0109598318,3.51623045 C0.00423786101,2.36375069 0.0202025417,1.15247976 0.0134805709,0 Z" id="Fill-3"></path>
        </g>
    </g>
</svg>